<svg width="211" height="43" viewBox="0 0 211 43" fill="none" xmlns="http://www.w3.org/2000/svg">
<path d="M0.72 27.432H1.728C3.04 27.432 3.696 26.792 3.696 25.512V9.384C3.696 8.136 3.04 7.512 1.728 7.512H0.72V1.944H12.288L18.576 16.344L24.816 1.944H36.384V7.512H35.376C34.096 7.512 33.456 8.136 33.456 9.384V25.512C33.456 26.152 33.6 26.632 33.888 26.952C34.208 27.272 34.704 27.432 35.376 27.432H36.384V33H21.744V27.432H22.752C24.064 27.432 24.72 26.84 24.72 25.656V15.192L21.12 23.544H15.984L12.384 15.192V25.656C12.384 26.84 13.04 27.432 14.352 27.432H15.36V33H0.72V27.432ZM49.4535 33.768C45.2615 33.768 41.9975 32.744 39.6615 30.696C37.3255 28.648 36.1575 25.624 36.1575 21.624C36.1575 17.432 37.2455 14.328 39.4215 12.312C41.5975 10.264 44.7175 9.24 48.7815 9.24C52.7495 9.24 55.7575 10.312 57.8055 12.456C59.8855 14.568 60.9255 17.4 60.9255 20.952V23.256H45.0375C45.0375 25.176 45.3735 26.536 46.0455 27.336C46.7175 28.136 47.9015 28.536 49.5975 28.536C50.7815 28.536 51.8375 28.328 52.7655 27.912V25.992H60.1095V30.264C58.8615 31.416 57.3895 32.296 55.6935 32.904C53.9975 33.48 51.9175 33.768 49.4535 33.768ZM52.0935 18.648C52.0935 17.336 51.7735 16.328 51.1335 15.624C50.5255 14.888 49.6775 14.52 48.5895 14.52C47.4375 14.52 46.5575 14.888 45.9495 15.624C45.3415 16.328 45.0375 17.336 45.0375 18.648H52.0935ZM71.7019 33.672C68.4379 33.672 65.8619 32.696 63.9739 30.744C62.0859 28.792 61.1419 25.928 61.1419 22.152C61.1419 17.992 62.0539 14.808 63.8779 12.6C65.7339 10.36 68.4539 9.24 72.0379 9.24C73.4139 9.24 74.5819 9.4 75.5419 9.72C76.5019 10.04 77.4779 10.568 78.4699 11.304V8.76C78.4699 7.544 77.8139 6.936 76.5019 6.936H75.9739V1.224H86.2459V25.8C86.2459 26.504 86.3579 26.984 86.5819 27.24C86.8059 27.496 87.2539 27.624 87.9259 27.624H88.3099V33H80.5339L80.1499 30.072C79.0619 31.288 77.8459 32.2 76.5019 32.808C75.1579 33.384 73.5579 33.672 71.7019 33.672ZM74.0059 28.68C75.3819 28.68 76.3739 28.12 76.9819 27C77.6219 25.848 77.9419 24.376 77.9419 22.584V20.52C77.9419 18.568 77.6379 17.08 77.0299 16.056C76.4219 15.032 75.4139 14.52 74.0059 14.52C72.4699 14.52 71.4139 15.128 70.8379 16.344C70.2619 17.528 69.9739 19.416 69.9739 22.008C69.9739 23.704 70.0859 25.032 70.3099 25.992C70.5339 26.92 70.9339 27.608 71.5099 28.056C72.0859 28.472 72.9179 28.68 74.0059 28.68ZM91.7629 0.407999H100.787V6.888H91.7629V0.407999ZM88.7869 27.336H89.7949C90.4989 27.336 90.9949 27.176 91.2829 26.856C91.6029 26.536 91.7629 26.056 91.7629 25.416V17.496C91.7629 16.28 91.1069 15.672 89.7949 15.672H88.7869V9.96H100.787V25.512C100.787 26.728 101.443 27.336 102.755 27.336H103.763V33H88.7869V27.336ZM117.696 33.72C112.416 33.72 108.096 32.328 104.736 29.544V23.544H113.664V27.24C114.72 27.816 116.064 28.104 117.696 28.104C118.88 28.104 119.76 27.88 120.336 27.432C120.912 26.952 121.2 26.2 121.2 25.176C121.2 24.472 120.976 23.88 120.528 23.4C120.112 22.92 119.536 22.504 118.8 22.152C118.064 21.768 116.8 21.192 115.008 20.424C112.64 19.4 110.752 18.44 109.344 17.544C107.936 16.616 106.848 15.56 106.08 14.376C105.344 13.192 104.976 11.752 104.976 10.056C104.976 7.176 106.176 4.984 108.576 3.48C110.976 1.976 114.016 1.224 117.696 1.224C120.416 1.224 122.688 1.608 124.512 2.376C126.336 3.144 127.984 4.2 129.456 5.544V10.92H120.528V7.656C119.6 7.112 118.496 6.84 117.216 6.84C114.912 6.84 113.76 7.8 113.76 9.72C113.76 10.52 114.032 11.224 114.576 11.832C115.152 12.408 115.776 12.872 116.448 13.224C117.152 13.544 118.16 13.976 119.472 14.52C122.352 15.704 124.464 16.68 125.808 17.448C127.152 18.184 128.176 19.112 128.88 20.232C129.616 21.352 129.984 22.84 129.984 24.696C129.984 26.424 129.504 27.976 128.544 29.352C127.616 30.696 126.224 31.768 124.368 32.568C122.512 33.336 120.288 33.72 117.696 33.72ZM143.801 42.6C141.497 42.6 139.433 42.296 137.609 41.688C135.785 41.08 134.281 40.216 133.097 39.096V35.208H140.441V36.456C140.857 36.872 141.305 37.16 141.785 37.32C142.297 37.512 142.921 37.608 143.657 37.608C145.769 37.608 146.825 36.392 146.825 33.96V31.8C145.993 32.088 145.097 32.328 144.137 32.52C143.209 32.68 142.425 32.76 141.785 32.76C138.585 32.76 136.057 32.008 134.201 30.504C132.377 29 131.465 26.904 131.465 24.216V17.448C131.465 16.872 131.289 16.424 130.937 16.104C130.617 15.784 130.121 15.624 129.449 15.624H128.537V9.96H140.441V24.6C140.441 26.552 141.385 27.528 143.273 27.528C144.233 27.528 144.937 27.32 145.385 26.904C145.833 26.456 146.057 25.736 146.057 24.744V17.448C146.057 16.808 145.945 16.344 145.721 16.056C145.529 15.768 145.113 15.624 144.473 15.624H143.801V9.96H155.033V31.608C155.033 33.816 154.569 35.736 153.641 37.368C152.745 39.032 151.449 40.312 149.753 41.208C148.089 42.136 146.105 42.6 143.801 42.6ZM157.423 27.336H157.903C159.247 27.336 159.919 26.728 159.919 25.512V17.544C159.919 16.328 159.295 15.72 158.047 15.72H157.423V9.96H165.487L165.823 13.032C167.903 10.504 170.847 9.24 174.655 9.24C177.535 9.24 179.647 9.944 180.991 11.352C182.335 12.728 183.007 14.744 183.007 17.4V25.512C183.007 26.728 183.663 27.336 184.975 27.336H185.887V33H173.983V17.448C173.983 16.456 173.775 15.736 173.359 15.288C172.943 14.84 172.319 14.616 171.487 14.616C170.591 14.616 169.935 14.84 169.519 15.288C169.103 15.704 168.895 16.424 168.895 17.448V25.512C168.895 26.12 169.007 26.584 169.231 26.904C169.487 27.192 169.919 27.336 170.527 27.336H171.151V33H157.423V27.336ZM200.109 33.72C197.613 33.72 195.357 33.272 193.341 32.376C191.357 31.48 189.773 30.136 188.589 28.344C187.437 26.552 186.861 24.376 186.861 21.816C186.861 17.624 188.029 14.488 190.365 12.408C192.733 10.296 196.013 9.24 200.205 9.24C202.477 9.24 204.381 9.512 205.917 10.056C207.453 10.568 208.973 11.416 210.477 12.6V18.552H203.133V15.96C202.749 15.672 202.317 15.48 201.837 15.384C201.389 15.256 200.829 15.192 200.157 15.192C198.781 15.192 197.693 15.752 196.893 16.872C196.093 17.96 195.693 19.608 195.693 21.816C195.693 23.896 196.189 25.4 197.181 26.328C198.205 27.256 199.789 27.72 201.933 27.72C204.461 27.72 206.493 27.144 208.029 25.992L210.765 30.504C209.165 31.72 207.629 32.552 206.157 33C204.685 33.48 202.669 33.72 200.109 33.72Z" fill="#0077D8"/>
</svg>
